<mxfile host="app.diagrams.net" modified="2022-06-15T12:31:48.519Z" agent="5.0 (Windows NT 10.0; Win64; x64) AppleWebKit/537.36 (KHTML, like Gecko) Chrome/102.0.0.0 Safari/537.36" etag="U0Ubz_0l72zN_pu0YlU3" version="20.0.1" type="github">
  <diagram id="QvxMBBVeg6zyAkM6D_pC" name="Page-1">
    <mxGraphModel dx="877" dy="469" grid="1" gridSize="10" guides="1" tooltips="1" connect="1" arrows="1" fold="1" page="1" pageScale="1" pageWidth="827" pageHeight="1169" math="0" shadow="0">
      <root>
        <mxCell id="0" />
        <mxCell id="1" parent="0" />
        <mxCell id="dnnVuCcSxBWRgz99yjNH-2" value="&lt;div style=&quot;line-height: 1.15; font-size: 14px;&quot;&gt;&lt;span style=&quot;font-size: 16px; font-family: SimSun, STSong;&quot;&gt;基于RISC-V单片机的接地电阻阻抗测量的装置&lt;/span&gt;&lt;/div&gt;" style="rounded=1;whiteSpace=wrap;html=1;" vertex="1" parent="1">
          <mxGeometry x="113.75" y="320" width="370" height="80" as="geometry" />
        </mxCell>
        <mxCell id="dnnVuCcSxBWRgz99yjNH-3" value="1.直线三点法测电阻的理论基础研究" style="rounded=1;whiteSpace=wrap;html=1;" vertex="1" parent="1">
          <mxGeometry x="32" y="470" width="120" height="60" as="geometry" />
        </mxCell>
        <mxCell id="dnnVuCcSxBWRgz99yjNH-4" value="2.有源带通滤波器的设计和验证" style="rounded=1;whiteSpace=wrap;html=1;" vertex="1" parent="1">
          <mxGeometry x="172" y="470" width="120" height="60" as="geometry" />
        </mxCell>
        <mxCell id="dnnVuCcSxBWRgz99yjNH-5" value="3.电路芯片选型和原理图设计、PCB制作" style="rounded=1;whiteSpace=wrap;html=1;" vertex="1" parent="1">
          <mxGeometry x="306" y="470" width="120" height="60" as="geometry" />
        </mxCell>
        <mxCell id="dnnVuCcSxBWRgz99yjNH-6" value="4.搭建RISC-V内核的gcc开发环境" style="rounded=1;whiteSpace=wrap;html=1;" vertex="1" parent="1">
          <mxGeometry x="442" y="470" width="120" height="60" as="geometry" />
        </mxCell>
        <mxCell id="dnnVuCcSxBWRgz99yjNH-7" value="5.FFT算法在PC端的验证和移植" style="rounded=1;whiteSpace=wrap;html=1;" vertex="1" parent="1">
          <mxGeometry x="90" y="560" width="120" height="60" as="geometry" />
        </mxCell>
        <mxCell id="dnnVuCcSxBWRgz99yjNH-8" value="6.用pyhon对ADC数据和FFT的结果做图像显示与分析" style="rounded=1;whiteSpace=wrap;html=1;" vertex="1" parent="1">
          <mxGeometry x="250" y="560" width="120" height="60" as="geometry" />
        </mxCell>
        <mxCell id="dnnVuCcSxBWRgz99yjNH-9" value="7.PCB板焊接和各个模块调试" style="rounded=1;whiteSpace=wrap;html=1;" vertex="1" parent="1">
          <mxGeometry x="400" y="560" width="120" height="60" as="geometry" />
        </mxCell>
        <mxCell id="dnnVuCcSxBWRgz99yjNH-10" value="" style="shape=curlyBracket;whiteSpace=wrap;html=1;rounded=1;flipH=1;rotation=-90;" vertex="1" parent="1">
          <mxGeometry x="275" y="165" width="47.5" height="525" as="geometry" />
        </mxCell>
      </root>
    </mxGraphModel>
  </diagram>
</mxfile>
